<svg width="256" height="256" viewBox="0 0 256 256" fill="none" xmlns="http://www.w3.org/2000/svg">
<g clip-path="url(#clip0_212_185)">
<rect width="256" height="256" fill="url(#paint0_linear_212_185)"/>
<path d="M-61.7628 167L-49.0355 90.6364H-28.9006L-31.0881 104.109H-30.2429C-27.9228 99.6349 -24.6913 96.1051 -20.5483 93.5199C-16.3722 90.9347 -11.6823 89.642 -6.47869 89.642C-1.30824 89.642 2.90104 90.9512 6.14915 93.5696C9.4304 96.1548 11.3196 99.6681 11.8168 104.109H12.6122C14.866 99.7344 18.2633 96.2377 22.804 93.6193C27.3447 90.9678 32.4157 89.642 38.017 89.642C45.0767 89.642 50.4792 91.9124 54.2244 96.4531C57.9697 100.994 59.1463 107.391 57.7543 115.643L49.2031 167H28.0242L35.9787 119.82C36.6084 115.544 35.9787 112.362 34.0895 110.274C32.2003 108.153 29.5653 107.092 26.1847 107.092C22.34 107.092 19.1416 108.319 16.5895 110.771C14.0374 113.191 12.4631 116.389 11.8665 120.366L3.96165 167H-16.571L-8.51704 119.372C-7.9536 115.594 -8.56676 112.611 -10.3565 110.423C-12.1132 108.203 -14.7481 107.092 -18.2614 107.092C-20.5814 107.092 -22.7855 107.689 -24.8736 108.882C-26.9285 110.042 -28.6686 111.683 -30.0938 113.804C-31.5189 115.892 -32.447 118.345 -32.8778 121.162L-40.6335 167H-61.7628ZM65.9325 167L78.6598 90.6364H98.7947L96.6072 104.109H97.4524C99.7725 99.6349 103.004 96.1051 107.147 93.5199C111.323 90.9347 116.013 89.642 121.217 89.642C126.387 89.642 130.596 90.9512 133.844 93.5696C137.126 96.1548 139.015 99.6681 139.512 104.109H140.308C142.561 99.7344 145.959 96.2377 150.499 93.6193C155.04 90.9678 160.111 89.642 165.712 89.642C172.772 89.642 178.174 91.9124 181.92 96.4531C185.665 100.994 186.842 107.391 185.45 115.643L176.898 167H155.719L163.674 119.82C164.304 115.544 163.674 112.362 161.785 110.274C159.896 108.153 157.261 107.092 153.88 107.092C150.035 107.092 146.837 108.319 144.285 110.771C141.733 113.191 140.158 116.389 139.562 120.366L131.657 167H111.124L119.178 119.372C119.742 115.594 119.129 112.611 117.339 110.423C115.582 108.203 112.947 107.092 109.434 107.092C107.114 107.092 104.91 107.689 102.822 108.882C100.767 110.042 99.0268 111.683 97.6016 113.804C96.1764 115.892 95.2483 118.345 94.8175 121.162L87.0618 167H65.9325ZM193.628 167L206.355 90.6364H226.49L224.303 104.109H225.148C227.468 99.6349 230.699 96.1051 234.842 93.5199C239.018 90.9347 243.708 89.642 248.912 89.642C254.082 89.642 258.292 90.9512 261.54 93.5696C264.821 96.1548 266.71 99.6681 267.207 104.109H268.003C270.257 99.7344 273.654 96.2377 278.195 93.6193C282.735 90.9678 287.806 89.642 293.408 89.642C300.467 89.642 305.87 91.9124 309.615 96.4531C313.36 100.994 314.537 107.391 313.145 115.643L304.594 167H283.415L291.369 119.82C291.999 115.544 291.369 112.362 289.48 110.274C287.591 108.153 284.956 107.092 281.575 107.092C277.731 107.092 274.532 108.319 271.98 110.771C269.428 113.191 267.854 116.389 267.257 120.366L259.352 167H238.82L246.874 119.372C247.437 115.594 246.824 112.611 245.034 110.423C243.277 108.203 240.643 107.092 237.129 107.092C234.809 107.092 232.605 107.689 230.517 108.882C228.462 110.042 226.722 111.683 225.297 113.804C223.872 115.892 222.944 118.345 222.513 121.162L214.757 167H193.628Z" fill="white"/>
</g>
<defs>
<linearGradient id="paint0_linear_212_185" x1="0" y1="128" x2="256" y2="128" gradientUnits="userSpaceOnUse">
<stop stop-color="#8E51FF"/>
<stop offset="1" stop-color="#4F39F6"/>
</linearGradient>
<clipPath id="clip0_212_185">
<rect width="256" height="256" fill="white"/>
</clipPath>
</defs>
</svg>
